<svg xmlns="http://www.w3.org/2000/svg" viewBox="-6 0 48 48" width="48" height="48" preserveAspectRatio="xMidYMid meet" aria-hidden="true">
  <g fill="#990000">
    <path d="M8.172 36.577c0 .362-.258.605-.562.605v-.002c-.312.002-.563-.241-.563-.604 0-.361.251-.603.563-.603.305.002.562.243.562.604m.227 0c0-.497-.372-.787-.789-.787-.418 0-.79.29-.79.787 0 .497.372.787.79.787.417 0 .789-.29.789-.787m-.92.067h.086l.196.356h.215l-.217-.37c.112-.009.204-.064.204-.222 0-.192-.129-.255-.347-.255h-.318V37h.181zM7.479 36.5v-.203h.127c.069 0 .162.007.162.094 0 .093-.048.109-.129.109z"/>
    <path d="M7.45 9.589v16.316l1.67 1.692h9.273l1.367-1.703V9.589l-1.367-1.74H9.12zm0-8.86h12.306l6.426 7.115v19.754l-6.426 7.124H7.45L1.024 27.598V7.849z"/>
    <path d="M28.662 38.812V16.883l6.422-.006v23.637l-6.426 7.124H17.021l-6.424-7.124V16.883h6.424v21.938l1.67 1.693h8.604z"/>
  </g>
</svg>
